<svg xmlns="http://www.w3.org/2000/svg" xmlns:xlink="http://www.w3.org/1999/xlink" width="500" zoomAndPan="magnify" viewBox="0 0 375 374.999991" height="500" preserveAspectRatio="xMidYMid meet" version="1.2"><defs><filter x="0%" y="0%" width="100%" filterUnits="objectBoundingBox" id="9b05e29ad0" height="100%"><feColorMatrix values="0 0 0 0 1 0 0 0 0 1 0 0 0 0 1 0 0 0 1 0" type="matrix" in="SourceGraphic"/></filter><clipPath id="70e2ee8783"><path d="M 0.359375 0.734375 L 305.609375 0.734375 L 305.609375 161.984375 L 0.359375 161.984375 Z M 0.359375 0.734375 "/></clipPath><clipPath id="e338a0d947"><rect x="0" width="307" y="0" height="163"/></clipPath><clipPath id="ed5189c7ca"><path d="M 0.90625 0.734375 L 306.15625 0.734375 L 306.15625 161.984375 L 0.90625 161.984375 Z M 0.90625 0.734375 "/></clipPath><clipPath id="623fa0187a"><rect x="0" width="307" y="0" height="163"/></clipPath><clipPath id="7a394f3533"><path d="M 0.730469 0.734375 L 305.980469 0.734375 L 305.980469 161.984375 L 0.730469 161.984375 Z M 0.730469 0.734375 "/></clipPath><clipPath id="ba7ec3a970"><rect x="0" width="307" y="0" height="163"/></clipPath></defs><g id="e50ebbdbb1"><g mask="url(#f3fce6bd68)" transform="matrix(1,0,0,1,24,106)"><g clip-path="url(#e338a0d947)"><g clip-rule="nonzero" clip-path="url(#70e2ee8783)"><path style=" stroke:none;fill-rule:nonzero;fill:#d4e4f8;fill-opacity:1;" d="M 54.695312 131.988281 L 66.515625 95.980469 L 35.722656 73.761719 L 73.730469 73.851562 L 85.386719 37.785156 L 97.058594 73.851562 L 305.601562 62.320312 L 105.355469 62.460938 L 85.386719 0.734375 L 65.429688 62.460938 L 0.378906 62.320312 L 53.09375 100.332031 L 32.847656 161.96875 L 85.386719 123.734375 L 250.109375 105.6875 L 85.386719 109.648438 Z M 54.695312 131.988281 "/></g></g><mask id="f3fce6bd68"><g filter="url(#9b05e29ad0)"><rect x="0" width="375" y="0" height="374.999991" style="fill:#000000;fill-opacity:0.85;stroke:none;"/></g></mask></g><g mask="url(#05f7cfeb82)" transform="matrix(1,0,0,1,34,106)"><g clip-path="url(#623fa0187a)"><g clip-rule="nonzero" clip-path="url(#ed5189c7ca)"><path style=" stroke:none;fill-rule:nonzero;fill:#b7ceeb;fill-opacity:1;" d="M 55.242188 131.988281 L 67.0625 95.980469 L 36.269531 73.761719 L 74.277344 73.851562 L 85.933594 37.785156 L 97.605469 73.851562 L 306.148438 62.320312 L 105.902344 62.460938 L 85.933594 0.734375 L 65.976562 62.460938 L 0.925781 62.320312 L 53.640625 100.332031 L 33.394531 161.96875 L 85.933594 123.734375 L 250.65625 105.6875 L 85.933594 109.648438 Z M 55.242188 131.988281 "/></g></g><mask id="05f7cfeb82"><g filter="url(#9b05e29ad0)"><rect x="0" width="375" y="0" height="374.999991" style="fill:#000000;fill-opacity:0.77;stroke:none;"/></g></mask></g><g mask="url(#e808806f3a)" transform="matrix(1,0,0,1,45,106)"><g clip-path="url(#ba7ec3a970)"><g clip-rule="nonzero" clip-path="url(#7a394f3533)"><path style=" stroke:none;fill-rule:nonzero;fill:#9db8d9;fill-opacity:1;" d="M 55.066406 131.988281 L 66.886719 95.980469 L 36.089844 73.761719 L 74.101562 73.851562 L 85.757812 37.785156 L 97.425781 73.851562 L 305.972656 62.320312 L 105.726562 62.460938 L 85.757812 0.734375 L 65.800781 62.460938 L 0.75 62.320312 L 53.460938 100.332031 L 33.21875 161.96875 L 85.757812 123.734375 L 250.480469 105.6875 L 85.757812 109.648438 Z M 55.066406 131.988281 "/></g></g><mask id="e808806f3a"><g filter="url(#9b05e29ad0)"><rect x="0" width="375" y="0" height="374.999991" style="fill:#000000;fill-opacity:0.9;stroke:none;"/></g></mask></g></g></svg>