<svg xmlns="http://www.w3.org/2000/svg" xmlns:xlink="http://www.w3.org/1999/xlink" width="500" zoomAndPan="magnify" viewBox="0 0 375 374.999991" height="500" preserveAspectRatio="xMidYMid meet" version="1.2"><defs><filter x="0%" y="0%" width="100%" filterUnits="objectBoundingBox" id="ffa6975d09" height="100%"><feColorMatrix values="0 0 0 0 1 0 0 0 0 1 0 0 0 0 1 0 0 0 1 0" type="matrix" in="SourceGraphic"/></filter><clipPath id="563bcd3b01"><path d="M 0.359375 0.34375 L 143.609375 0.34375 L 143.609375 76.09375 L 0.359375 76.09375 Z M 0.359375 0.34375 "/></clipPath><clipPath id="5e8a764e30"><rect x="0" width="144" y="0" height="77"/></clipPath><clipPath id="2aec12244e"><path d="M 0.324219 0.34375 L 143.558594 0.34375 L 143.558594 76.09375 L 0.324219 76.09375 Z M 0.324219 0.34375 "/></clipPath><clipPath id="cf6b431f00"><rect x="0" width="144" y="0" height="77"/></clipPath><clipPath id="61a7b8cb36"><path d="M 0.421875 0.34375 L 143.671875 0.34375 L 143.671875 76.09375 L 0.421875 76.09375 Z M 0.421875 0.34375 "/></clipPath><clipPath id="4f2e5d4e17"><rect x="0" width="144" y="0" height="77"/></clipPath></defs><g id="60a62849a9"><rect x="0" width="375" y="0" height="374.999991" style="fill:#ffffff;fill-opacity:1;stroke:none;"/><rect x="0" width="375" y="0" height="374.999991" style="fill:#ffffff;fill-opacity:1;stroke:none;"/><g mask="url(#ebe5d265ae)" transform="matrix(1,0,0,1,90,86)"><g clip-path="url(#5e8a764e30)"><g clip-rule="nonzero" clip-path="url(#563bcd3b01)"><path style=" stroke:none;fill-rule:nonzero;fill:#d4e4f8;fill-opacity:1;" d="M 25.820312 62.003906 L 31.355469 45.085938 L 16.929688 34.648438 L 34.734375 34.691406 L 40.195312 17.75 L 45.664062 34.691406 L 143.351562 29.273438 L 49.550781 29.339844 L 40.195312 0.34375 L 30.847656 29.339844 L 0.375 29.273438 L 25.070312 47.132812 L 15.585938 76.085938 L 40.195312 58.125 L 117.355469 49.648438 L 40.195312 51.507812 Z M 25.820312 62.003906 "/></g></g><mask id="ebe5d265ae"><g filter="url(#ffa6975d09)"><rect x="0" width="375" y="0" height="374.999991" style="fill:#000000;fill-opacity:0.85;stroke:none;"/></g></mask></g><g mask="url(#a018797560)" transform="matrix(1,0,0,1,95,86)"><g clip-path="url(#cf6b431f00)"><g clip-rule="nonzero" clip-path="url(#2aec12244e)"><path style=" stroke:none;fill-rule:nonzero;fill:#b7ceeb;fill-opacity:1;" d="M 25.785156 62.003906 L 31.320312 45.085938 L 16.894531 34.648438 L 34.699219 34.691406 L 40.160156 17.75 L 45.628906 34.691406 L 143.316406 29.273438 L 49.515625 29.339844 L 40.160156 0.34375 L 30.8125 29.339844 L 0.34375 29.273438 L 25.035156 47.132812 L 15.550781 76.085938 L 40.160156 58.125 L 117.320312 49.648438 L 40.160156 51.507812 Z M 25.785156 62.003906 "/></g></g><mask id="a018797560"><g filter="url(#ffa6975d09)"><rect x="0" width="375" y="0" height="374.999991" style="fill:#000000;fill-opacity:0.77;stroke:none;"/></g></mask></g><g mask="url(#0bf960a71c)" transform="matrix(1,0,0,1,100,86)"><g clip-path="url(#4f2e5d4e17)"><g clip-rule="nonzero" clip-path="url(#61a7b8cb36)"><path style=" stroke:none;fill-rule:nonzero;fill:#9db8d9;fill-opacity:1;" d="M 25.878906 62.003906 L 31.417969 45.085938 L 16.992188 34.648438 L 34.796875 34.691406 L 40.257812 17.75 L 45.722656 34.691406 L 143.410156 29.273438 L 49.609375 29.339844 L 40.257812 0.34375 L 30.90625 29.339844 L 0.4375 29.273438 L 25.128906 47.132812 L 15.644531 76.085938 L 40.257812 58.125 L 117.417969 49.648438 L 40.257812 51.507812 Z M 25.878906 62.003906 "/></g></g><mask id="0bf960a71c"><g filter="url(#ffa6975d09)"><rect x="0" width="375" y="0" height="374.999991" style="fill:#000000;fill-opacity:0.9;stroke:none;"/></g></mask></g><g style="fill:#171616;fill-opacity:1;"><g transform="translate(57.798001, 220.047101)"><path style="stroke:none" d="M 31.90625 0 L 6.703125 0 L 6.703125 -60.078125 L 75.75 -60.078125 L 75.75 -45.21875 L 31.90625 -45.21875 L 31.90625 -35.796875 L 68.953125 -35.796875 L 68.953125 -24.25 L 31.90625 -24.25 Z M 31.90625 0 "/></g></g><g style="fill:#171616;fill-opacity:1;"><g transform="translate(119.727026, 220.047101)"><path style="stroke:none" d=""/></g></g><g style="fill:#171616;fill-opacity:1;"><g transform="translate(123.843243, 220.047101)"><path style="stroke:none" d="M 31.90625 0 L 6.703125 0 L 6.703125 -60.078125 L 31.90625 -60.078125 Z M 31.90625 0 "/></g></g><g style="fill:#171616;fill-opacity:1;"><g transform="translate(145.29074, 220.047101)"><path style="stroke:none" d=""/></g></g><g style="fill:#171616;fill-opacity:1;"><g transform="translate(149.406957, 220.047101)"><path style="stroke:none" d="M 45.421875 1.296875 C 30.578125 1.296875 19.648438 -1.757812 12.640625 -7.875 C 6.441406 -13.257812 3.34375 -20.628906 3.34375 -29.984375 C 3.34375 -39.328125 6.441406 -46.707031 12.640625 -52.125 C 19.648438 -58.207031 30.578125 -61.25 45.421875 -61.25 C 54.140625 -61.25 61.34375 -60.25 67.03125 -58.25 C 72.726562 -56.257812 77.148438 -53.535156 80.296875 -50.078125 C 83.453125 -46.617188 85.550781 -42.65625 86.59375 -38.1875 L 60.078125 -38.1875 C 57.429688 -42.84375 52.546875 -45.171875 45.421875 -45.171875 C 39.335938 -45.171875 34.859375 -43.414062 31.984375 -39.90625 C 29.703125 -37.113281 28.5625 -33.804688 28.5625 -29.984375 C 28.5625 -26.160156 29.703125 -22.851562 31.984375 -20.0625 C 34.859375 -16.539062 39.335938 -14.78125 45.421875 -14.78125 C 52.546875 -14.78125 57.429688 -17.125 60.078125 -21.8125 L 86.59375 -21.8125 C 85.550781 -17.320312 83.453125 -13.34375 80.296875 -9.875 C 77.148438 -6.414062 72.726562 -3.6875 67.03125 -1.6875 C 61.34375 0.300781 54.140625 1.296875 45.421875 1.296875 Z M 45.421875 1.296875 "/></g></g><g style="fill:#171616;fill-opacity:1;"><g transform="translate(222.178487, 220.047101)"><path style="stroke:none" d=""/></g></g><g style="fill:#171616;fill-opacity:1;"><g transform="translate(226.294704, 220.047101)"><path style="stroke:none" d="M 100.90625 0 L 75.359375 0 L 69.71875 -9.84375 L 31.828125 -9.84375 L 26.171875 0 L 0.625 0 L 39.0625 -60.046875 L 62.46875 -60.046875 Z M 61.21875 -24.703125 L 50.78125 -42.921875 L 40.328125 -24.703125 Z M 61.21875 -24.703125 "/></g></g><g style="fill:#171616;fill-opacity:1;"><g transform="translate(310.68287, 220.047101)"><path style="stroke:none" d=""/></g></g><g style="fill:#171616;fill-opacity:1;"><g transform="translate(68.083387, 249.406268)"><path style="stroke:none" d="M 0.828125 0 L 0.828125 -9.53125 L 7.140625 -9.53125 L 7.140625 -7.875 L 2.84375 -7.875 L 2.84375 -5.59375 L 6.71875 -5.59375 L 6.71875 -3.9375 L 2.84375 -3.9375 L 2.84375 0 Z M 0.828125 0 "/></g></g><g style="fill:#171616;fill-opacity:1;"><g transform="translate(75.751109, 249.406268)"><path style="stroke:none" d="M 2.46875 0 L 0.3125 0 L 3.609375 -9.53125 L 6.203125 -9.53125 L 9.484375 0 L 7.328125 0 L 6.625 -2.171875 L 3.171875 -2.171875 Z M 3.6875 -3.75 L 6.109375 -3.75 L 4.9375 -7.359375 L 4.859375 -7.359375 Z M 3.6875 -3.75 "/></g></g><g style="fill:#171616;fill-opacity:1;"><g transform="translate(85.55574, 249.406268)"><path style="stroke:none" d="M 6 -6.796875 C 5.957031 -7.171875 5.796875 -7.460938 5.515625 -7.671875 C 5.234375 -7.878906 4.851562 -7.984375 4.375 -7.984375 C 3.875 -7.984375 3.492188 -7.878906 3.234375 -7.671875 C 2.972656 -7.472656 2.84375 -7.21875 2.84375 -6.90625 C 2.832031 -6.570312 2.976562 -6.316406 3.28125 -6.140625 C 3.582031 -5.960938 3.9375 -5.828125 4.34375 -5.734375 L 5.203125 -5.53125 C 5.753906 -5.40625 6.242188 -5.222656 6.671875 -4.984375 C 7.109375 -4.742188 7.445312 -4.4375 7.6875 -4.0625 C 7.9375 -3.695312 8.0625 -3.25 8.0625 -2.71875 C 8.0625 -1.851562 7.734375 -1.160156 7.078125 -0.640625 C 6.429688 -0.117188 5.523438 0.140625 4.359375 0.140625 C 3.203125 0.140625 2.28125 -0.125 1.59375 -0.65625 C 0.90625 -1.1875 0.546875 -1.96875 0.515625 -3 L 2.46875 -3 C 2.5 -2.519531 2.6875 -2.160156 3.03125 -1.921875 C 3.375 -1.679688 3.8125 -1.5625 4.34375 -1.5625 C 4.851562 -1.5625 5.257812 -1.664062 5.5625 -1.875 C 5.875 -2.09375 6.03125 -2.378906 6.03125 -2.734375 C 6.03125 -3.054688 5.890625 -3.300781 5.609375 -3.46875 C 5.328125 -3.644531 4.925781 -3.796875 4.40625 -3.921875 L 3.375 -4.1875 C 2.570312 -4.375 1.9375 -4.675781 1.46875 -5.09375 C 1 -5.507812 0.765625 -6.070312 0.765625 -6.78125 C 0.765625 -7.351562 0.921875 -7.851562 1.234375 -8.28125 C 1.546875 -8.71875 1.972656 -9.054688 2.515625 -9.296875 C 3.066406 -9.546875 3.691406 -9.671875 4.390625 -9.671875 C 5.097656 -9.671875 5.710938 -9.546875 6.234375 -9.296875 C 6.765625 -9.054688 7.175781 -8.71875 7.46875 -8.28125 C 7.769531 -7.851562 7.925781 -7.359375 7.9375 -6.796875 Z M 6 -6.796875 "/></g></g><g style="fill:#171616;fill-opacity:1;"><g transform="translate(94.14062, 249.406268)"><path style="stroke:none" d="M 0.828125 0 L 0.828125 -9.53125 L 2.84375 -9.53125 L 2.84375 -5.59375 L 6.9375 -5.59375 L 6.9375 -9.53125 L 8.953125 -9.53125 L 8.953125 0 L 6.9375 0 L 6.9375 -3.9375 L 2.84375 -3.9375 L 2.84375 0 Z M 0.828125 0 "/></g></g><g style="fill:#171616;fill-opacity:1;"><g transform="translate(103.921979, 249.406268)"><path style="stroke:none" d="M 2.84375 -9.53125 L 2.84375 0 L 0.828125 0 L 0.828125 -9.53125 Z M 2.84375 -9.53125 "/></g></g><g style="fill:#171616;fill-opacity:1;"><g transform="translate(107.599884, 249.406268)"><path style="stroke:none" d="M 9.59375 -4.765625 C 9.59375 -3.722656 9.394531 -2.835938 9 -2.109375 C 8.601562 -1.378906 8.066406 -0.820312 7.390625 -0.4375 C 6.722656 -0.0625 5.96875 0.125 5.125 0.125 C 4.28125 0.125 3.519531 -0.0664062 2.84375 -0.453125 C 2.164062 -0.835938 1.628906 -1.394531 1.234375 -2.125 C 0.847656 -2.851562 0.65625 -3.734375 0.65625 -4.765625 C 0.65625 -5.804688 0.847656 -6.691406 1.234375 -7.421875 C 1.628906 -8.148438 2.164062 -8.707031 2.84375 -9.09375 C 3.519531 -9.476562 4.28125 -9.671875 5.125 -9.671875 C 5.96875 -9.671875 6.722656 -9.476562 7.390625 -9.09375 C 8.066406 -8.707031 8.601562 -8.148438 9 -7.421875 C 9.394531 -6.691406 9.59375 -5.804688 9.59375 -4.765625 Z M 7.546875 -4.765625 C 7.546875 -5.773438 7.320312 -6.546875 6.875 -7.078125 C 6.4375 -7.609375 5.851562 -7.875 5.125 -7.875 C 4.394531 -7.875 3.804688 -7.609375 3.359375 -7.078125 C 2.921875 -6.546875 2.703125 -5.773438 2.703125 -4.765625 C 2.703125 -3.753906 2.921875 -2.984375 3.359375 -2.453125 C 3.804688 -1.921875 4.394531 -1.65625 5.125 -1.65625 C 5.851562 -1.65625 6.4375 -1.921875 6.875 -2.453125 C 7.320312 -2.984375 7.546875 -3.753906 7.546875 -4.765625 Z M 7.546875 -4.765625 "/></g></g><g style="fill:#171616;fill-opacity:1;"><g transform="translate(117.851458, 249.406268)"><path style="stroke:none" d="M 8.796875 -9.53125 L 8.796875 0 L 7.0625 0 L 2.921875 -6 L 2.84375 -6 L 2.84375 0 L 0.828125 0 L 0.828125 -9.53125 L 2.59375 -9.53125 L 6.71875 -3.53125 L 6.796875 -3.53125 L 6.796875 -9.53125 Z M 8.796875 -9.53125 "/></g></g><g style="fill:#171616;fill-opacity:1;"><g transform="translate(127.488498, 249.406268)"><path style="stroke:none" d=""/></g></g><g style="fill:#171616;fill-opacity:1;"><g transform="translate(130.52858, 249.406268)"><path style="stroke:none" d="M 2.84375 -9.53125 L 2.84375 0 L 0.828125 0 L 0.828125 -9.53125 Z M 2.84375 -9.53125 "/></g></g><g style="fill:#171616;fill-opacity:1;"><g transform="translate(134.206485, 249.406268)"><path style="stroke:none" d="M 8.796875 -9.53125 L 8.796875 0 L 7.0625 0 L 2.921875 -6 L 2.84375 -6 L 2.84375 0 L 0.828125 0 L 0.828125 -9.53125 L 2.59375 -9.53125 L 6.71875 -3.53125 L 6.796875 -3.53125 L 6.796875 -9.53125 Z M 8.796875 -9.53125 "/></g></g><g style="fill:#171616;fill-opacity:1;"><g transform="translate(143.843525, 249.406268)"><path style="stroke:none" d=""/></g></g><g style="fill:#171616;fill-opacity:1;"><g transform="translate(146.883607, 249.406268)"><path style="stroke:none" d="M 9.234375 -6.203125 L 7.203125 -6.203125 C 7.117188 -6.722656 6.894531 -7.128906 6.53125 -7.421875 C 6.164062 -7.722656 5.707031 -7.875 5.15625 -7.875 C 4.414062 -7.875 3.820312 -7.601562 3.375 -7.0625 C 2.925781 -6.519531 2.703125 -5.753906 2.703125 -4.765625 C 2.703125 -3.742188 2.925781 -2.96875 3.375 -2.4375 C 3.820312 -1.914062 4.410156 -1.65625 5.140625 -1.65625 C 5.671875 -1.65625 6.125 -1.796875 6.5 -2.078125 C 6.875 -2.359375 7.109375 -2.753906 7.203125 -3.265625 L 9.234375 -3.25 C 9.171875 -2.664062 8.960938 -2.113281 8.609375 -1.59375 C 8.265625 -1.082031 7.796875 -0.664062 7.203125 -0.34375 C 6.617188 -0.03125 5.921875 0.125 5.109375 0.125 C 4.253906 0.125 3.488281 -0.0664062 2.8125 -0.453125 C 2.144531 -0.835938 1.617188 -1.394531 1.234375 -2.125 C 0.847656 -2.851562 0.65625 -3.734375 0.65625 -4.765625 C 0.65625 -5.804688 0.847656 -6.691406 1.234375 -7.421875 C 1.628906 -8.148438 2.160156 -8.707031 2.828125 -9.09375 C 3.503906 -9.476562 4.265625 -9.671875 5.109375 -9.671875 C 5.835938 -9.671875 6.5 -9.53125 7.09375 -9.25 C 7.6875 -8.976562 8.171875 -8.582031 8.546875 -8.0625 C 8.921875 -7.550781 9.148438 -6.929688 9.234375 -6.203125 Z M 9.234375 -6.203125 "/></g></g><g style="fill:#171616;fill-opacity:1;"><g transform="translate(156.744118, 249.406268)"><path style="stroke:none" d="M 9.59375 -4.765625 C 9.59375 -3.722656 9.394531 -2.835938 9 -2.109375 C 8.601562 -1.378906 8.066406 -0.820312 7.390625 -0.4375 C 6.722656 -0.0625 5.96875 0.125 5.125 0.125 C 4.28125 0.125 3.519531 -0.0664062 2.84375 -0.453125 C 2.164062 -0.835938 1.628906 -1.394531 1.234375 -2.125 C 0.847656 -2.851562 0.65625 -3.734375 0.65625 -4.765625 C 0.65625 -5.804688 0.847656 -6.691406 1.234375 -7.421875 C 1.628906 -8.148438 2.164062 -8.707031 2.84375 -9.09375 C 3.519531 -9.476562 4.28125 -9.671875 5.125 -9.671875 C 5.96875 -9.671875 6.722656 -9.476562 7.390625 -9.09375 C 8.066406 -8.707031 8.601562 -8.148438 9 -7.421875 C 9.394531 -6.691406 9.59375 -5.804688 9.59375 -4.765625 Z M 7.546875 -4.765625 C 7.546875 -5.773438 7.320312 -6.546875 6.875 -7.078125 C 6.4375 -7.609375 5.851562 -7.875 5.125 -7.875 C 4.394531 -7.875 3.804688 -7.609375 3.359375 -7.078125 C 2.921875 -6.546875 2.703125 -5.773438 2.703125 -4.765625 C 2.703125 -3.753906 2.921875 -2.984375 3.359375 -2.453125 C 3.804688 -1.921875 4.394531 -1.65625 5.125 -1.65625 C 5.851562 -1.65625 6.4375 -1.921875 6.875 -2.453125 C 7.320312 -2.984375 7.546875 -3.753906 7.546875 -4.765625 Z M 7.546875 -4.765625 "/></g></g><g style="fill:#171616;fill-opacity:1;"><g transform="translate(166.995692, 249.406268)"><path style="stroke:none" d="M 0.828125 -9.53125 L 3.3125 -9.53125 L 5.9375 -3.125 L 6.046875 -3.125 L 8.671875 -9.53125 L 11.15625 -9.53125 L 11.15625 0 L 9.203125 0 L 9.203125 -6.203125 L 9.125 -6.203125 L 6.65625 -0.046875 L 5.328125 -0.046875 L 2.859375 -6.234375 L 2.78125 -6.234375 L 2.78125 0 L 0.828125 0 Z M 0.828125 -9.53125 "/></g></g><g style="fill:#171616;fill-opacity:1;"><g transform="translate(179.109492, 249.406268)"><path style="stroke:none" d="M 0.828125 -9.53125 L 3.3125 -9.53125 L 5.9375 -3.125 L 6.046875 -3.125 L 8.671875 -9.53125 L 11.15625 -9.53125 L 11.15625 0 L 9.203125 0 L 9.203125 -6.203125 L 9.125 -6.203125 L 6.65625 -0.046875 L 5.328125 -0.046875 L 2.859375 -6.234375 L 2.78125 -6.234375 L 2.78125 0 L 0.828125 0 Z M 0.828125 -9.53125 "/></g></g><g style="fill:#171616;fill-opacity:1;"><g transform="translate(191.223291, 249.406268)"><path style="stroke:none" d="M 0.828125 0 L 0.828125 -9.53125 L 7.25 -9.53125 L 7.25 -7.875 L 2.84375 -7.875 L 2.84375 -5.59375 L 6.921875 -5.59375 L 6.921875 -3.9375 L 2.84375 -3.9375 L 2.84375 -1.65625 L 7.265625 -1.65625 L 7.265625 0 Z M 0.828125 0 "/></g></g><g style="fill:#171616;fill-opacity:1;"><g transform="translate(199.254152, 249.406268)"><path style="stroke:none" d="M 0.828125 0 L 0.828125 -9.53125 L 4.59375 -9.53125 C 5.675781 -9.53125 6.515625 -9.25 7.109375 -8.6875 C 7.703125 -8.125 8 -7.367188 8 -6.421875 C 8 -5.765625 7.851562 -5.207031 7.5625 -4.75 C 7.28125 -4.289062 6.867188 -3.941406 6.328125 -3.703125 L 8.34375 0 L 6.125 0 L 4.3125 -3.375 L 2.84375 -3.375 L 2.84375 0 Z M 2.84375 -5 L 4.21875 -5 C 5.363281 -5 5.9375 -5.472656 5.9375 -6.421875 C 5.9375 -7.398438 5.359375 -7.890625 4.203125 -7.890625 L 2.84375 -7.890625 Z M 2.84375 -5 "/></g></g><g style="fill:#171616;fill-opacity:1;"><g transform="translate(207.857654, 249.406268)"><path style="stroke:none" d="M 9.234375 -6.203125 L 7.203125 -6.203125 C 7.117188 -6.722656 6.894531 -7.128906 6.53125 -7.421875 C 6.164062 -7.722656 5.707031 -7.875 5.15625 -7.875 C 4.414062 -7.875 3.820312 -7.601562 3.375 -7.0625 C 2.925781 -6.519531 2.703125 -5.753906 2.703125 -4.765625 C 2.703125 -3.742188 2.925781 -2.96875 3.375 -2.4375 C 3.820312 -1.914062 4.410156 -1.65625 5.140625 -1.65625 C 5.671875 -1.65625 6.125 -1.796875 6.5 -2.078125 C 6.875 -2.359375 7.109375 -2.753906 7.203125 -3.265625 L 9.234375 -3.25 C 9.171875 -2.664062 8.960938 -2.113281 8.609375 -1.59375 C 8.265625 -1.082031 7.796875 -0.664062 7.203125 -0.34375 C 6.617188 -0.03125 5.921875 0.125 5.109375 0.125 C 4.253906 0.125 3.488281 -0.0664062 2.8125 -0.453125 C 2.144531 -0.835938 1.617188 -1.394531 1.234375 -2.125 C 0.847656 -2.851562 0.65625 -3.734375 0.65625 -4.765625 C 0.65625 -5.804688 0.847656 -6.691406 1.234375 -7.421875 C 1.628906 -8.148438 2.160156 -8.707031 2.828125 -9.09375 C 3.503906 -9.476562 4.265625 -9.671875 5.109375 -9.671875 C 5.835938 -9.671875 6.5 -9.53125 7.09375 -9.25 C 7.6875 -8.976562 8.171875 -8.582031 8.546875 -8.0625 C 8.921875 -7.550781 9.148438 -6.929688 9.234375 -6.203125 Z M 9.234375 -6.203125 "/></g></g><g style="fill:#171616;fill-opacity:1;"><g transform="translate(217.718165, 249.406268)"><path style="stroke:none" d="M 0.828125 0 L 0.828125 -9.53125 L 7.25 -9.53125 L 7.25 -7.875 L 2.84375 -7.875 L 2.84375 -5.59375 L 6.921875 -5.59375 L 6.921875 -3.9375 L 2.84375 -3.9375 L 2.84375 -1.65625 L 7.265625 -1.65625 L 7.265625 0 Z M 0.828125 0 "/></g></g><g style="fill:#171616;fill-opacity:1;"><g transform="translate(225.749026, 249.406268)"><path style="stroke:none" d=""/></g></g><g style="fill:#171616;fill-opacity:1;"><g transform="translate(228.789107, 249.406268)"><path style="stroke:none" d="M 2.46875 0 L 0.3125 0 L 3.609375 -9.53125 L 6.203125 -9.53125 L 9.484375 0 L 7.328125 0 L 6.625 -2.171875 L 3.171875 -2.171875 Z M 3.6875 -3.75 L 6.109375 -3.75 L 4.9375 -7.359375 L 4.859375 -7.359375 Z M 3.6875 -3.75 "/></g></g><g style="fill:#171616;fill-opacity:1;"><g transform="translate(238.593738, 249.406268)"><path style="stroke:none" d="M 6 -6.796875 C 5.957031 -7.171875 5.796875 -7.460938 5.515625 -7.671875 C 5.234375 -7.878906 4.851562 -7.984375 4.375 -7.984375 C 3.875 -7.984375 3.492188 -7.878906 3.234375 -7.671875 C 2.972656 -7.472656 2.84375 -7.21875 2.84375 -6.90625 C 2.832031 -6.570312 2.976562 -6.316406 3.28125 -6.140625 C 3.582031 -5.960938 3.9375 -5.828125 4.34375 -5.734375 L 5.203125 -5.53125 C 5.753906 -5.40625 6.242188 -5.222656 6.671875 -4.984375 C 7.109375 -4.742188 7.445312 -4.4375 7.6875 -4.0625 C 7.9375 -3.695312 8.0625 -3.25 8.0625 -2.71875 C 8.0625 -1.851562 7.734375 -1.160156 7.078125 -0.640625 C 6.429688 -0.117188 5.523438 0.140625 4.359375 0.140625 C 3.203125 0.140625 2.28125 -0.125 1.59375 -0.65625 C 0.90625 -1.1875 0.546875 -1.96875 0.515625 -3 L 2.46875 -3 C 2.5 -2.519531 2.6875 -2.160156 3.03125 -1.921875 C 3.375 -1.679688 3.8125 -1.5625 4.34375 -1.5625 C 4.851562 -1.5625 5.257812 -1.664062 5.5625 -1.875 C 5.875 -2.09375 6.03125 -2.378906 6.03125 -2.734375 C 6.03125 -3.054688 5.890625 -3.300781 5.609375 -3.46875 C 5.328125 -3.644531 4.925781 -3.796875 4.40625 -3.921875 L 3.375 -4.1875 C 2.570312 -4.375 1.9375 -4.675781 1.46875 -5.09375 C 1 -5.507812 0.765625 -6.070312 0.765625 -6.78125 C 0.765625 -7.351562 0.921875 -7.851562 1.234375 -8.28125 C 1.546875 -8.71875 1.972656 -9.054688 2.515625 -9.296875 C 3.066406 -9.546875 3.691406 -9.671875 4.390625 -9.671875 C 5.097656 -9.671875 5.710938 -9.546875 6.234375 -9.296875 C 6.765625 -9.054688 7.175781 -8.71875 7.46875 -8.28125 C 7.769531 -7.851562 7.925781 -7.359375 7.9375 -6.796875 Z M 6 -6.796875 "/></g></g><g style="fill:#171616;fill-opacity:1;"><g transform="translate(247.178619, 249.406268)"><path style="stroke:none" d="M 6 -6.796875 C 5.957031 -7.171875 5.796875 -7.460938 5.515625 -7.671875 C 5.234375 -7.878906 4.851562 -7.984375 4.375 -7.984375 C 3.875 -7.984375 3.492188 -7.878906 3.234375 -7.671875 C 2.972656 -7.472656 2.84375 -7.21875 2.84375 -6.90625 C 2.832031 -6.570312 2.976562 -6.316406 3.28125 -6.140625 C 3.582031 -5.960938 3.9375 -5.828125 4.34375 -5.734375 L 5.203125 -5.53125 C 5.753906 -5.40625 6.242188 -5.222656 6.671875 -4.984375 C 7.109375 -4.742188 7.445312 -4.4375 7.6875 -4.0625 C 7.9375 -3.695312 8.0625 -3.25 8.0625 -2.71875 C 8.0625 -1.851562 7.734375 -1.160156 7.078125 -0.640625 C 6.429688 -0.117188 5.523438 0.140625 4.359375 0.140625 C 3.203125 0.140625 2.28125 -0.125 1.59375 -0.65625 C 0.90625 -1.1875 0.546875 -1.96875 0.515625 -3 L 2.46875 -3 C 2.5 -2.519531 2.6875 -2.160156 3.03125 -1.921875 C 3.375 -1.679688 3.8125 -1.5625 4.34375 -1.5625 C 4.851562 -1.5625 5.257812 -1.664062 5.5625 -1.875 C 5.875 -2.09375 6.03125 -2.378906 6.03125 -2.734375 C 6.03125 -3.054688 5.890625 -3.300781 5.609375 -3.46875 C 5.328125 -3.644531 4.925781 -3.796875 4.40625 -3.921875 L 3.375 -4.1875 C 2.570312 -4.375 1.9375 -4.675781 1.46875 -5.09375 C 1 -5.507812 0.765625 -6.070312 0.765625 -6.78125 C 0.765625 -7.351562 0.921875 -7.851562 1.234375 -8.28125 C 1.546875 -8.71875 1.972656 -9.054688 2.515625 -9.296875 C 3.066406 -9.546875 3.691406 -9.671875 4.390625 -9.671875 C 5.097656 -9.671875 5.710938 -9.546875 6.234375 -9.296875 C 6.765625 -9.054688 7.175781 -8.71875 7.46875 -8.28125 C 7.769531 -7.851562 7.925781 -7.359375 7.9375 -6.796875 Z M 6 -6.796875 "/></g></g><g style="fill:#171616;fill-opacity:1;"><g transform="translate(255.763499, 249.406268)"><path style="stroke:none" d="M 9.59375 -4.765625 C 9.59375 -3.722656 9.394531 -2.835938 9 -2.109375 C 8.601562 -1.378906 8.066406 -0.820312 7.390625 -0.4375 C 6.722656 -0.0625 5.96875 0.125 5.125 0.125 C 4.28125 0.125 3.519531 -0.0664062 2.84375 -0.453125 C 2.164062 -0.835938 1.628906 -1.394531 1.234375 -2.125 C 0.847656 -2.851562 0.65625 -3.734375 0.65625 -4.765625 C 0.65625 -5.804688 0.847656 -6.691406 1.234375 -7.421875 C 1.628906 -8.148438 2.164062 -8.707031 2.84375 -9.09375 C 3.519531 -9.476562 4.28125 -9.671875 5.125 -9.671875 C 5.96875 -9.671875 6.722656 -9.476562 7.390625 -9.09375 C 8.066406 -8.707031 8.601562 -8.148438 9 -7.421875 C 9.394531 -6.691406 9.59375 -5.804688 9.59375 -4.765625 Z M 7.546875 -4.765625 C 7.546875 -5.773438 7.320312 -6.546875 6.875 -7.078125 C 6.4375 -7.609375 5.851562 -7.875 5.125 -7.875 C 4.394531 -7.875 3.804688 -7.609375 3.359375 -7.078125 C 2.921875 -6.546875 2.703125 -5.773438 2.703125 -4.765625 C 2.703125 -3.753906 2.921875 -2.984375 3.359375 -2.453125 C 3.804688 -1.921875 4.394531 -1.65625 5.125 -1.65625 C 5.851562 -1.65625 6.4375 -1.921875 6.875 -2.453125 C 7.320312 -2.984375 7.546875 -3.753906 7.546875 -4.765625 Z M 7.546875 -4.765625 "/></g></g><g style="fill:#171616;fill-opacity:1;"><g transform="translate(266.015074, 249.406268)"><path style="stroke:none" d="M 9.234375 -6.203125 L 7.203125 -6.203125 C 7.117188 -6.722656 6.894531 -7.128906 6.53125 -7.421875 C 6.164062 -7.722656 5.707031 -7.875 5.15625 -7.875 C 4.414062 -7.875 3.820312 -7.601562 3.375 -7.0625 C 2.925781 -6.519531 2.703125 -5.753906 2.703125 -4.765625 C 2.703125 -3.742188 2.925781 -2.96875 3.375 -2.4375 C 3.820312 -1.914062 4.410156 -1.65625 5.140625 -1.65625 C 5.671875 -1.65625 6.125 -1.796875 6.5 -2.078125 C 6.875 -2.359375 7.109375 -2.753906 7.203125 -3.265625 L 9.234375 -3.25 C 9.171875 -2.664062 8.960938 -2.113281 8.609375 -1.59375 C 8.265625 -1.082031 7.796875 -0.664062 7.203125 -0.34375 C 6.617188 -0.03125 5.921875 0.125 5.109375 0.125 C 4.253906 0.125 3.488281 -0.0664062 2.8125 -0.453125 C 2.144531 -0.835938 1.617188 -1.394531 1.234375 -2.125 C 0.847656 -2.851562 0.65625 -3.734375 0.65625 -4.765625 C 0.65625 -5.804688 0.847656 -6.691406 1.234375 -7.421875 C 1.628906 -8.148438 2.160156 -8.707031 2.828125 -9.09375 C 3.503906 -9.476562 4.265625 -9.671875 5.109375 -9.671875 C 5.835938 -9.671875 6.5 -9.53125 7.09375 -9.25 C 7.6875 -8.976562 8.171875 -8.582031 8.546875 -8.0625 C 8.921875 -7.550781 9.148438 -6.929688 9.234375 -6.203125 Z M 9.234375 -6.203125 "/></g></g><g style="fill:#171616;fill-opacity:1;"><g transform="translate(275.875585, 249.406268)"><path style="stroke:none" d="M 2.84375 -9.53125 L 2.84375 0 L 0.828125 0 L 0.828125 -9.53125 Z M 2.84375 -9.53125 "/></g></g><g style="fill:#171616;fill-opacity:1;"><g transform="translate(279.55349, 249.406268)"><path style="stroke:none" d="M 2.46875 0 L 0.3125 0 L 3.609375 -9.53125 L 6.203125 -9.53125 L 9.484375 0 L 7.328125 0 L 6.625 -2.171875 L 3.171875 -2.171875 Z M 3.6875 -3.75 L 6.109375 -3.75 L 4.9375 -7.359375 L 4.859375 -7.359375 Z M 3.6875 -3.75 "/></g></g><g style="fill:#171616;fill-opacity:1;"><g transform="translate(289.358121, 249.406268)"><path style="stroke:none" d="M 0.46875 -7.875 L 0.46875 -9.53125 L 8.296875 -9.53125 L 8.296875 -7.875 L 5.375 -7.875 L 5.375 0 L 3.390625 0 L 3.390625 -7.875 Z M 0.46875 -7.875 "/></g></g><g style="fill:#171616;fill-opacity:1;"><g transform="translate(298.119912, 249.406268)"><path style="stroke:none" d="M 2.84375 -9.53125 L 2.84375 0 L 0.828125 0 L 0.828125 -9.53125 Z M 2.84375 -9.53125 "/></g></g><g style="fill:#171616;fill-opacity:1;"><g transform="translate(301.797818, 249.406268)"><path style="stroke:none" d="M 9.59375 -4.765625 C 9.59375 -3.722656 9.394531 -2.835938 9 -2.109375 C 8.601562 -1.378906 8.066406 -0.820312 7.390625 -0.4375 C 6.722656 -0.0625 5.96875 0.125 5.125 0.125 C 4.28125 0.125 3.519531 -0.0664062 2.84375 -0.453125 C 2.164062 -0.835938 1.628906 -1.394531 1.234375 -2.125 C 0.847656 -2.851562 0.65625 -3.734375 0.65625 -4.765625 C 0.65625 -5.804688 0.847656 -6.691406 1.234375 -7.421875 C 1.628906 -8.148438 2.164062 -8.707031 2.84375 -9.09375 C 3.519531 -9.476562 4.28125 -9.671875 5.125 -9.671875 C 5.96875 -9.671875 6.722656 -9.476562 7.390625 -9.09375 C 8.066406 -8.707031 8.601562 -8.148438 9 -7.421875 C 9.394531 -6.691406 9.59375 -5.804688 9.59375 -4.765625 Z M 7.546875 -4.765625 C 7.546875 -5.773438 7.320312 -6.546875 6.875 -7.078125 C 6.4375 -7.609375 5.851562 -7.875 5.125 -7.875 C 4.394531 -7.875 3.804688 -7.609375 3.359375 -7.078125 C 2.921875 -6.546875 2.703125 -5.773438 2.703125 -4.765625 C 2.703125 -3.753906 2.921875 -2.984375 3.359375 -2.453125 C 3.804688 -1.921875 4.394531 -1.65625 5.125 -1.65625 C 5.851562 -1.65625 6.4375 -1.921875 6.875 -2.453125 C 7.320312 -2.984375 7.546875 -3.753906 7.546875 -4.765625 Z M 7.546875 -4.765625 "/></g></g><g style="fill:#171616;fill-opacity:1;"><g transform="translate(312.049392, 249.406268)"><path style="stroke:none" d="M 8.796875 -9.53125 L 8.796875 0 L 7.0625 0 L 2.921875 -6 L 2.84375 -6 L 2.84375 0 L 0.828125 0 L 0.828125 -9.53125 L 2.59375 -9.53125 L 6.71875 -3.53125 L 6.796875 -3.53125 L 6.796875 -9.53125 Z M 8.796875 -9.53125 "/></g></g></g></svg>